<?xml version="1.0" standalone="no"?>
<!DOCTYPE svg PUBLIC "-//W3C//DTD SVG 20010904//EN"
 "http://www.w3.org/TR/2001/REC-SVG-20010904/DTD/svg10.dtd">
<svg version="1.0" xmlns="http://www.w3.org/2000/svg"
 width="500.000000pt" height="500.000000pt" viewBox="0 0 500.000000 500.000000"
 preserveAspectRatio="xMidYMid meet">

<g transform="translate(0.000000,500.000000) scale(0.100000,-0.100000)"
fill="#000000" stroke="none">
<path d="M1664 3820 c-126 -19 -238 -101 -292 -218 l-27 -57 -3 -732 -3 -733
1161 0 1161 0 -3 728 c-3 726 -3 727 -25 782 -48 117 -164 208 -293 229 -75
12 -1594 13 -1676 1z m442 -844 c12 -4 78 -64 147 -135 116 -118 127 -132 127
-166 0 -20 -6 -48 -14 -63 -20 -39 -237 -249 -269 -261 -53 -20 -116 10 -137
65 -18 47 0 85 83 171 l80 83 -81 84 c-74 76 -82 87 -82 123 0 21 7 49 16 62
19 26 71 52 94 46 8 -2 24 -6 36 -9z m890 -435 c32 -21 46 -51 46 -94 -1 -31
-8 -47 -32 -71 l-30 -31 -199 0 c-148 0 -204 3 -223 14 -57 30 -69 113 -23
161 15 16 37 31 49 33 11 3 104 4 206 4 140 -2 190 -5 206 -16z"/>
<path d="M1453 1853 c-9 -3 -13 -33 -13 -99 0 -94 0 -94 25 -94 20 0 25 5 25
25 0 24 3 25 55 25 67 0 95 22 95 74 0 52 -36 76 -114 75 -33 0 -67 -3 -73 -6z
m131 -59 c10 -26 -2 -34 -50 -34 -40 0 -44 2 -44 25 0 23 4 25 44 25 31 0 46
-5 50 -16z"/>
<path d="M1710 1760 l0 -100 95 0 c95 0 95 0 95 25 0 24 -2 25 -71 25 -44 0
-68 4 -64 10 3 6 28 10 56 10 46 0 49 2 49 25 0 24 -3 25 -56 25 -40 0 -55 3
-52 13 3 7 29 13 71 15 64 3 67 4 67 27 0 25 -1 25 -95 25 l-95 0 0 -100z"/>
<path d="M1993 1853 c-9 -3 -13 -33 -13 -99 0 -94 0 -94 25 -94 20 0 25 5 25
25 0 24 3 25 55 25 67 0 95 22 95 74 0 52 -36 76 -114 75 -33 0 -67 -3 -73 -6z
m131 -59 c10 -26 -2 -34 -50 -34 -40 0 -44 2 -44 25 0 23 4 25 44 25 31 0 46
-5 50 -16z"/>
<path d="M2250 1760 l0 -100 95 0 c95 0 95 0 95 25 0 24 -2 25 -71 25 -44 0
-68 4 -64 10 3 6 28 10 56 10 46 0 49 2 49 25 0 24 -3 25 -56 25 -40 0 -55 3
-52 13 3 7 29 13 71 15 64 3 67 4 67 27 0 25 -1 25 -95 25 l-95 0 0 -100z"/>
<path d="M2560 1849 c-29 -12 -40 -26 -40 -55 0 -31 26 -48 83 -54 30 -3 52
-11 55 -19 4 -11 -10 -13 -67 -9 -67 3 -71 3 -71 -18 0 -28 17 -34 91 -34 50
0 64 4 84 25 30 29 31 45 7 75 -13 16 -34 24 -77 29 -43 6 -55 10 -42 16 10 4
40 5 68 2 46 -6 49 -5 49 17 0 16 -7 26 -22 30 -33 9 -89 6 -118 -5z"/>
<path d="M2834 1846 c-36 -16 -44 -32 -44 -91 0 -61 24 -86 88 -93 99 -9 142
19 142 92 0 67 -31 98 -101 103 -33 2 -66 -2 -85 -11z m120 -52 c19 -18 20
-38 6 -65 -8 -14 -21 -19 -53 -19 -24 0 -48 5 -55 12 -18 18 -15 65 6 77 26
16 79 13 96 -5z"/>
<path d="M3100 1760 l0 -100 25 0 c22 0 25 4 25 35 l0 35 55 0 c52 0 55 1 55
25 0 24 -3 25 -55 25 -42 0 -55 3 -55 15 0 12 14 15 70 15 68 0 70 1 70 25 0
25 0 25 -95 25 l-95 0 0 -100z"/>
<path d="M3350 1835 c0 -22 4 -25 40 -25 l40 0 0 -75 c0 -73 1 -75 25 -75 24
0 25 2 25 75 l0 75 40 0 c36 0 40 3 40 25 l0 25 -105 0 -105 0 0 -25z"/>
<path d="M2107 1483 c-4 -3 -7 -10 -7 -15 0 -4 178 -8 395 -8 344 0 395 2 395
15 0 13 -50 15 -388 15 -214 0 -392 -3 -395 -7z"/>
</g>
</svg>
